<svg width="45" height="44" viewBox="0 0 45 44" fill="none" xmlns="http://www.w3.org/2000/svg">
<path d="M29.9994 35.0864H26.9999V37.9949H29.9994V35.0864Z" fill="#F69D00"/>
<path d="M33.0005 0.189941H30.0009V6.00543V8.91387V11.8223V14.7307V17.6392V20.5476H27.0014V23.456H24.0018V26.3645V32.18V35.0884V37.9968H27.0014V35.0884V32.18V26.3645V29.2729H30.0009V26.3645H33.0005V23.456V20.5476V17.6392H36V6.00543V0.189941H33.0005Z" fill="#F69D00"/>
<path d="M20.9997 23.4535V20.5464H18.0001V17.638V14.7296V11.8225V8.91406H15.0006V11.8225V14.7296V17.638V20.5464V23.4535H18.0001V26.3619V29.2704H20.9997V26.3619V23.4535Z" fill="#FDD208"/>
<path d="M15.0004 8.91387V6.00543V3.09838V0.189941H11.9995V3.09838V6.00543V8.91387V11.8223H15.0004V8.91387Z" fill="#FDD208"/>
<path d="M33.0005 40.9012V43.8096H36V40.9012V37.9941H33.0005V40.9012Z" fill="#F8B806"/>
<path d="M29.9994 37.9941H26.9999V40.9012V43.8096H29.9994H33.0003V40.9012V37.9941H29.9994Z" fill="#F8B806"/>
<path d="M11.9995 40.9012V43.8096H15.0004V40.9012V37.9941H11.9995V40.9012Z" fill="#F8B806"/>
<path d="M18.0001 23.4541H15.0006V26.3625H18.0001V23.4541Z" fill="#F8B806"/>
<path d="M11.9995 23.4533V26.3617H15.0005V23.4533V20.5462V17.6378V14.7294V11.8223H11.9995V8.91387V6.00543V3.09838V0.189941H9V3.09838V6.00543V3.09838H6.00046H2.99954H0V6.00543V8.91387V11.8223H2.99954V14.7294V17.6378H6.00046V20.5462H9V17.6378H6.00046V14.7294V11.8223H2.99954V8.91387V6.00543H6.00046H9V8.91387V11.8223V14.7294H11.9995V17.6378V20.5462H9V23.4533H11.9995Z" fill="#F8B806"/>
<path d="M27.0002 17.6378V14.7294V11.8223V8.91387V6.00543V3.09838V0.189941H24.0006H20.9997V3.09838V6.00543V8.91387V11.8223V14.7294V17.6378V20.5462V23.4533V26.3617V29.2702V32.1772V35.0856V37.9941V35.0856H18.0001V37.9941H15.0006V40.9011V43.8096H18.0001H20.9997V40.9011V37.9941V40.9011V43.8096H24.0006H27.0002V40.9011V37.9941H24.0006V35.0856V32.1772V29.2702V26.3617V23.4533H27.0002V20.5462V17.6378Z" fill="#F8B806"/>
<path d="M20.9997 17.6378V14.7294V11.8223V8.91387V6.00543V3.09838V0.189941H18.0001H15.0006V3.09838V6.00543V8.91387H18.0001V11.8223V14.7294V17.6378V20.5462H20.9997V17.6378Z" fill="#F8B806"/>
<path d="M38.9996 14.7293V17.6378H36V20.5462H33.0005V23.4532H36V20.5462H38.9996V17.6378H42.0005V14.7293V11.8223H38.9996V14.7293Z" fill="#F8B806"/>
<path d="M26.9999 8.91387V11.8223V14.7294V17.6378V20.5462H29.9994V17.6378V14.7294V11.8223V8.91387V6.00543V3.09838V0.189941H26.9999V3.09838V6.00543V8.91387Z" fill="#F8B806"/>
<path d="M45 6.00569V3.09863H42.0005V6.00569V3.09863H38.9995H36V6.00569H38.9995H42.0005V8.91412V11.8226H45V8.91412V6.00569Z" fill="#F8B806"/>
</svg>
