<svg xmlns="http://www.w3.org/2000/svg" width="14" height="12" viewBox="0 0 14 12" fill="none">
  <g clip-path="url(#clip0_938_20037)">
    <path d="M12.746 5.34375H12.0752V6V6.65625V7.3125V7.96875V8.625V9.28125H12.746H13.4169V8.625V7.96875V7.3125V6.65625V6V5.34375H12.746Z" fill="#0C0C0C"/>
    <path d="M0 5.34375V6V6.65625V7.3125V7.96875V8.625V9.28125H0.670833H1.34167V8.625V7.96875V7.3125V6.65625V6V5.34375H0.670833H0Z" fill="#0C0C0C"/>
    <path d="M10.7335 2.71877H7.37936L6.03769 2.71875L2.68353 2.71877V3.37502H2.0127V10.5938H2.68353V11.25H10.7335V10.5938H11.4044V3.37502H10.7335V2.71877ZM9.39186 6.65627H8.05019V6.29169H9.39186V6.65627ZM9.39186 9.28127L6.70853 8.625L4.0252 9.28127V8.62502L6.70853 7.96875L9.39186 8.62502V9.28127ZM4.0252 6.65627V6.29169H5.36686V6.65627H4.0252Z" fill="#0C0C0C"/>
  </g>
  <defs>
    <clipPath id="clip0_938_20037">
      <rect width="13.4167" height="10.5" fill="white" transform="translate(0 0.75)"/>
    </clipPath>
  </defs>
</svg>