<svg xmlns="http://www.w3.org/2000/svg" width="30" height="24" viewBox="0 0 30 24" fill="none">
  <g clip-path="url(#clip0_911_6651)">
    <path d="M17.75 17.625H16.3125H14.875H13.4375H12H10.5625H9.125V19.0312H10.5625H12H13.4375H14.875H16.3125H17.75H19.1875H20.625V17.625H19.1875H17.75Z" fill="#FAFAFA"/>
    <path d="M12 13.4062V12V10.5938H10.5625H9.125V12V13.4062H10.5625H12Z" fill="#FAFAFA"/>
    <path d="M19.1875 10.5938H17.75V12V13.4062H19.1875H20.625V12V10.5938H19.1875Z" fill="#FAFAFA"/>
    <path d="M27.8125 10.5938H26.375V12V13.4062V14.8125V16.2188V17.625V19.0312H27.8125H29.25V17.625V16.2188V14.8125V13.4062V12V10.5938H27.8125Z" fill="#B648FF"/>
    <path d="M0.5 10.5938V12V13.4062V14.8125V16.2188V17.625V19.0312H1.9375H3.375V17.625V16.2188V14.8125V13.4062V12V10.5938H1.9375H0.5Z" fill="#B648FF"/>
    <path d="M23.5 4.96875H16.3125V0.75H13.4375V4.96875H6.25V6.375H4.8125V21.8438H6.25V23.25H23.5V21.8438H24.9375V6.375H23.5V4.96875ZM20.625 12V13.4062H17.75V10.5938H20.625V12ZM20.625 19.0312H9.125V17.625H20.625V19.0312ZM9.125 12V10.5938H12V13.4062H9.125V12Z" fill="#B648FF"/>
  </g>
  <defs>
    <clipPath id="clip0_911_6651">
      <rect width="28.75" height="22.5" fill="white" transform="translate(0.5 0.75)"/>
    </clipPath>
  </defs>
</svg>