<svg xmlns="http://www.w3.org/2000/svg" width="25" height="25" viewBox="0 0 25 25" fill="none">
  <path d="M10.9168 3.12467V2.58301H14.0835V3.12467V3.62467H14.5835H17.2085V5.20801V5.70801H17.7085H19.2918V7.29134V7.79134H19.7918H21.3752V10.4163V10.9163H21.8752H22.4168V14.083H21.8752H21.3752V14.583V17.208H19.7918H19.2918V17.708V19.2913H17.7085H17.2085V19.7913V21.3747H14.5835H14.0835V21.8747V22.4163H10.9168V21.8747V21.3747H10.4168H7.79183V19.7913V19.2913H7.29183H5.7085V17.708V17.208H5.2085H3.62516V14.583V14.083H3.12516H2.5835V10.9163H3.12516H3.62516V10.4163V7.79134H5.18196V8.2383V9.94284V10.4428H5.68196H6.03424V10.7951V11.2951H6.53424H6.88651V11.6474V12.1474H7.38651H7.73878V12.4997V12.9997H8.23878H8.59105V13.3519V13.8519H9.09105H9.44333V14.2042V14.7042H9.94333H10.2956V16.761V17.261H10.7956H11.1479V17.6133V18.1133H11.6479H12.0001V20.1701V20.6701H12.5001H14.2047H14.7047V20.1701V18.9656H15.057H15.557V18.4656V17.261H15.9092H16.4092V16.761V14.2042V13.7042H15.9092H15.557V13.3519V12.8519H15.057H12.1479V12.4997V12.1474H12.5001H13.0001V11.6474V10.7951V10.2951H12.5001H12.1479V9.59057H13.3524H13.8524V9.09057V5.68148V5.18148H13.3524H13.0001V4.82921V4.32921H12.5001H10.7956H10.2956V4.82921V5.18148H8.23878H7.79183V3.62467H10.4168H10.9168V3.12467ZM6.03424 7.7383H5.7085V7.29134V5.70801H7.29183H7.73878V6.03375H7.38651H6.88651V6.53375V6.88603H6.53424H6.03424V7.38603V7.7383ZM10.2956 11.6474V11.9997H9.59105V11.2951H10.2956V11.6474ZM17.6138 9.44284H17.1138V9.94284V12.4997V12.9997H17.6138H17.9661V13.3519V13.8519H18.4661H20.1706H20.6706V13.3519V9.94284V9.44284H20.1706H19.8183V9.09057V8.59057H19.3183H18.4661H17.9661V9.09057V9.44284H17.6138Z" fill="#52AACC" stroke="#52AACC"/>
</svg>