<svg width="15" height="14" viewBox="0 0 15 14" fill="none" xmlns="http://www.w3.org/2000/svg">
<path fill-rule="evenodd" clip-rule="evenodd" d="M9.25 5.25V4.08334H10.4167V5.25H9.25ZM10.4167 8.75V7.58334L8.08333 7.58334V6.41667L10.4167 6.41667V5.25H11.5833V6.41667L12.75 6.41667V7.58334L11.5833 7.58334V8.75H10.4167ZM10.4167 8.75V9.91667H9.25V8.75H10.4167ZM6.91667 6.41667V7.58334H4.58333V8.75H3.41667L3.41667 7.58334L2.25 7.58334V6.41667L3.41667 6.41667L3.41667 5.25H4.58333V6.41667L6.91667 6.41667ZM4.58333 8.75H5.75V9.91667H4.58333V8.75ZM5.75 4.08334V5.25H4.58333V4.08334H5.75Z" fill="#0C0C0C"/>
</svg>
