<svg xmlns="http://www.w3.org/2000/svg" width="10" height="10" viewBox="0 0 10 10" fill="none">
  <path fill-rule="evenodd" clip-rule="evenodd" d="M0 2.91669H0.833333L0.833333 3.75002H0L0 2.91669ZM1.66667 4.58335H0.833333L0.833333 3.75002L1.66667 3.75002V4.58335ZM3.33333 5.41669V4.58335H1.66667L1.66667 5.41669H0.833333L0.833333 6.25002H1.66667V5.41669H3.33333ZM6.66667 5.41669L3.33333 5.41669V6.25002H2.5L2.5 7.08335L3.33333 7.08335L3.33333 6.25002L6.66667 6.25002V7.08335H7.5V6.25002L6.66667 6.25002L6.66667 5.41669ZM8.33333 4.58335L6.66667 4.58335V5.41669L8.33333 5.41669V6.25002H9.16667V5.41669H8.33333V4.58335ZM9.16667 3.75002V4.58335H8.33333V3.75002L9.16667 3.75002ZM9.16667 3.75002V2.91669L10 2.91669V3.75002L9.16667 3.75002Z" fill="black"/>
</svg>