<svg xmlns="http://www.w3.org/2000/svg" width="14" height="15" viewBox="0 0 14 15" fill="none">
  <path fill-rule="evenodd" clip-rule="evenodd" d="M4.6665 3.41699L4.6665 4.58366L5.83317 4.58366L5.83317 3.41699L4.6665 3.41699ZM6.99984 5.75033L6.99984 4.58366L5.83317 4.58366L5.83317 5.75033L6.99984 5.75033ZM8.1665 6.91699L8.1665 5.75033L6.99984 5.75033L6.99984 6.91699L8.1665 6.91699ZM8.1665 8.08366L9.33317 8.08366L9.33317 6.91699L8.1665 6.91699L8.1665 8.08366ZM6.99984 9.25033L6.99984 8.08366L8.1665 8.08366L8.16651 9.25033L6.99984 9.25033ZM6.99984 9.25033L5.83317 9.25033L5.83317 10.417L6.99984 10.417L6.99984 9.25033ZM4.6665 11.5837L4.6665 10.417L5.83317 10.417L5.83317 11.5837L4.6665 11.5837Z" fill="#0C0C0C"/>
</svg>