<svg width="20" height="20" viewBox="0 0 20 20" fill="none" xmlns="http://www.w3.org/2000/svg">
<g clip-path="url(#clip0_1026_4957)">
<path d="M16.4995 7.49947V5.5H15.4989V4.49947H14.4984V3.49894H12.4989V2.5H7.49947V3.50053H5.5V4.50106H4.49947V5.5016H3.49894V7.50106H2.5V12.5005H3.50053V14.5H4.50106V15.5005H5.5016V16.5011H7.50106V17.5016H12.5005V16.5011H14.5V15.5005H15.5005V14.5H16.5011V12.5005H17.5016V7.50106H16.5011L16.4995 7.49947ZM11.5 8.5V7.49947H12.5005V9.49894H11.5V8.4984V8.5ZM8.5 7.49947V9.49894H7.49947V7.49947H8.5ZM12.5005 13.4995V12.4989H7.50106V13.4995H6.50053V12.4989H7.50106V11.4984H12.5005V12.4989H13.5011V13.4995H12.5005Z" fill="#808080"/>
</g>
<defs>
<clipPath id="clip0_1026_4957">
<rect width="15" height="15" fill="white" transform="translate(2.5 2.5)"/>
</clipPath>
</defs>
</svg>
