<svg xmlns="http://www.w3.org/2000/svg" width="21" height="21" viewBox="0 0 21 21" fill="none">
  <path d="M20.396 7.89551V6.33301H19.8752V5.29134H19.3543V4.77051H18.8335V3.72884H18.3127V3.20801H17.7918V2.68717H17.271V2.16634H16.2293V1.64551H15.7085V1.12467H14.6668V0.603841H12.5835V0.0830078H8.41683V0.603841H6.3335V1.12467H5.29183V1.64551H4.771V2.16634H3.72933V2.68717H3.2085V3.20801H2.68766V3.72884H2.16683V4.77051H1.646V5.81217H1.12516V6.33301H0.604329V7.89551H0.0834961V12.583H0.604329V14.1455H1.12516V15.1872H1.646V16.2288H2.16683V17.2705H2.68766V17.7913H3.2085V18.3122H4.25016V18.833H4.771V19.3538H5.81266V19.8747H6.85433V20.3955H8.41683V20.9163H12.5835V20.3955H14.146V19.8747H15.1877V19.3538H16.2293V18.833H16.7502V18.3122H17.7918V17.7913H18.3127V17.2705H18.8335V16.2288H19.3543V15.708H19.8752V14.1455H20.396V13.1038H20.9168V7.89551H20.396ZM13.6252 15.1872H12.5835V14.6663H12.0627V14.1455H11.021V13.6247H9.97933V14.1455H9.4585V14.6663H8.93766V15.1872H8.41683V12.583H8.93766V11.5413H9.4585V11.0205H9.97933V10.4997H10.5002V9.97884H11.5418V9.45801H12.0627V8.93717H12.5835V8.41634H11.5418V8.93717H11.021V9.45801H9.97933V9.97884H8.93766V10.4997H8.41683V11.0205H7.37516V11.5413H6.85433V11.0205H5.29183V10.4997H4.25016V9.97884H4.771V9.45801H6.3335V8.93717H7.37516V8.41634H8.93766V7.89551H10.5002V7.37467H12.0627V6.85384H13.1043V6.33301H14.6668V5.81217H15.7085V7.89551H15.1877V9.97884H14.6668V12.583H14.146V14.6663H13.6252V15.1872Z" fill="black"/>
  <path d="M13.1043 7.89551H12.5835V8.41634H13.1043V7.89551Z" fill="black"/>
</svg>