<svg xmlns="http://www.w3.org/2000/svg" width="25" height="25" viewBox="0 0 25 25" fill="none">
  <path d="M16.25 10.625V9.6875H17.1875V8.75H18.125V7.8125H19.0625V6.875H20V5.9375H20.9375V5H21.875V4.0625H22.8125V3.125H20V4.0625H19.0625V5H18.125V5.9375H17.1875V6.875H16.25V7.8125H15.3125V8.75H13.4375V7.8125H12.5V6.875H11.5625V5H10.625V4.0625H9.6875V3.125H3.125V4.0625H4.0625V5H5V5.9375H5.9375V7.8125H6.875V8.75H7.8125V10.625H8.75V11.5625H9.6875V13.4375H10.625V14.375H9.6875V15.3125H8.75V16.25H7.8125V17.1875H6.875V18.125H5.9375V19.0625H5V20H4.0625V20.9375H3.125V21.875H5.9375V20.9375H6.875V20H7.8125V19.0625H8.75V18.125H9.6875V17.1875H10.625V16.25H12.5V17.1875H13.4375V18.125H14.375V20H15.3125V20.9375H16.25V21.875H22.8125V20.9375H21.875V20H20.9375V19.0625H20V17.1875H19.0625V16.25H18.125V14.375H17.1875V13.4375H16.25V11.5625H15.3125V10.625H16.25ZM16.25 14.375V15.3125H17.1875V17.1875H18.125V18.125H19.0625V20H16.25V18.125H15.3125V17.1875H14.375V16.25H13.4375V14.375H12.5V13.4375H11.5625V12.5H10.625V10.625H9.6875V9.6875H8.75V7.8125H7.8125V6.875H6.875V5H9.6875V5.9375H10.625V7.8125H11.5625V8.75H12.5V10.625H13.4375V11.5625H14.375V12.5H15.3125V14.375H16.25Z" fill="black"/>
</svg>