<svg xmlns="http://www.w3.org/2000/svg" viewBox="0 0 48 48" fill="none">
  <path stroke="#FF6600" stroke-miterlimit="10" stroke-width="3.085" d="M24 46C11.85 46 2 36.15 2 24S11.85 2 24 2M12.666 37.596c-7.497-6.29-8.474-17.465-2.184-24.962S27.948 4.16 35.445 10.45m-17.78 25.44c-6.562-3.464-9.074-11.594-5.61-18.156 3.465-6.564 11.593-9.075 18.157-5.61M24 33.157a9.156 9.156 0 0 1 0-18.313"/>
  <path fill="#FF6600" d="M26.829 21.44a4.934 4.934 0 0 0-1.122-.9 2.388 2.388 0 0 0-1.198-.335c-.56 0-1.062.103-1.503.308-.443.207-.82.48-1.135.824a3.477 3.477 0 0 0-.715 1.183 4.06 4.06 0 0 0-.242 1.388c0 .48.081.944.242 1.389.163.446.4.84.715 1.183.315.343.693.617 1.135.824.441.205.943.308 1.503.308.476 0 .918-.1 1.326-.296a2.887 2.887 0 0 0 1.045-.862l2.04 2.212c-.306.308-.66.575-1.059.798a7.408 7.408 0 0 1-2.383.835c-.374.06-.697.09-.969.09a7.293 7.293 0 0 1-2.6-.462 6.217 6.217 0 0 1-2.115-1.313 6.19 6.19 0 0 1-1.415-2.044c-.349-.798-.524-1.684-.524-2.662 0-.976.175-1.864.524-2.661a6.189 6.189 0 0 1 1.415-2.045 6.238 6.238 0 0 1 2.115-1.312 7.295 7.295 0 0 1 2.6-.463c.781 0 1.568.151 2.358.45a5.36 5.36 0 0 1 2.078 1.428l-2.116 2.135Z"/>
</svg>
