<svg version="1.2" xmlns="http://www.w3.org/2000/svg" viewBox="0 0 1597 621" width="1597" height="621">
	<title>QQQ-svg</title>
	<style>
		.s0 { fill: #000ad2 } 
	</style>
	<g id="Layer">
		<path id="Layer" fill-rule="evenodd" class="s0" d="m487.2 288.8c0 91.6-27.9 164.5-75.9 214.9l41.1 60.7-85.7 56-39.9-58.3q-9.9 3.9-20.1 6.8-10.3 3-20.8 4.9-10.4 1.9-21 2.7-10.7 0.9-21.3 0.7c-153.6 0-243.1-118.7-243.1-288.2 0-169.5 89.5-288.5 243.1-288.5 153.6 0 243.1 119 243.6 288.3zm-138.9 124c16.9-32 23.6-76.6 23.6-123.4 0-100.4-37.3-178.1-128.3-178.1-91.1 0-127.9 76.5-127.9 177.2 0 100.7 39.2 182.9 130.4 182.9q2.3 0 4.6-0.1 2.3-0.1 4.6-0.3 2.3-0.2 4.6-0.5 2.3-0.2 4.5-0.6l-37.5-56 85.5-55.9 35.9 53.5zm450.6-412.3q0 0-0.1 0-0.1 0-0.2 0zm-0.1 0c153.5 0.1 243.1 119.2 243.5 288.3 0 91.7-27.9 164.6-75.9 215l41.1 60.7-85.6 55.9-40-58.2q-9.9 3.9-20.1 6.8-10.3 2.9-20.8 4.8-10.4 1.9-21.1 2.8-10.6 0.8-21.2 0.7c-153.6 0-242.9-118.7-242.9-288.2 0-169.4 89.5-288.5 243-288.6zm104.8 412.3c16.8-31.9 23.1-76.6 23.1-123.3 0-100.7-36.8-178.1-128-178.1-91.2 0-128 76.4-128 177.2 0 100.7 39.3 182.9 130.4 182.9q2.3 0 4.7-0.2 2.3-0.1 4.6-0.2 2.3-0.2 4.5-0.5 2.3-0.3 4.6-0.6l-37.6-56.1 85.6-55.9 36.3 53.6zm617.8 91l41.1 60.7-85.7 55.9-39.9-58.2q-9.9 3.9-20.2 6.8-10.2 2.9-20.7 4.8-10.5 1.9-21.1 2.8-10.6 0.8-21.2 0.6c-153.6 0-243.1-117.8-243.1-287.7 0-169.9 89.5-288.6 243.1-288.6 153.5 0 243.1 119.1 243.1 288.6 0 91.4-28 164.4-75.4 214.3zm-39.8-214.3c0-100.7-36.8-178.1-127.9-178.1-91.2 0-128 76.4-128 177.1 0 100.7 39.1 182.9 130.3 182.9q2.3 0 4.6-0.1 2.4-0.1 4.7-0.3 2.3-0.2 4.6-0.4 2.3-0.3 4.6-0.7l-37.6-56 85.6-55.9 35.9 54.8c16.9-31.9 23.2-76.6 23.2-123.3z"/>
	</g>
</svg>