<svg width="35" height="34" viewBox="0 0 35 34" fill="none" xmlns="http://www.w3.org/2000/svg">
<path d="M24.7 2V1H23.7H11.3H10.3V2V4H5.1H4.1V5V10H2H1V11V23V24H2H4.1L4.1 29L4.1 30H5.1H10.3V32V33H11.3H23.7H24.7V32V30H29.9H30.9V29V24H33H34V23V11V10H33H30.9V5V4H29.9H24.7V2Z" fill="#B8F2AA" stroke="#0C0C0C" stroke-width="2"/>
<path d="M27.125 6H28.75V12.25H32V21.625H28.75V27.875H22.25V31H12.5V27.875H6V26.3125H14.125V23.1875H17.375V20.0625H20.625V16.9375H23.875V13.8125H25.5V12.25H27.125V6Z" fill="#78C066" fill-opacity="0.5"/>
</svg>
