<svg xmlns="http://www.w3.org/2000/svg" width="32" height="26" viewBox="0 0 32 26" fill="none">
  <g clip-path="url(#clip0_854_18985)">
    <path d="M28.7915 20.293H27.7498H26.7082H25.6665H24.6248H23.5832H22.5415H21.4998H20.4582H19.4165H18.3748H17.3332H16.2915H15.2498H14.2082H13.1665H12.1248H11.0832H10.0415V21.3315H11.0832V22.3747V23.418H12.1248H13.1665H14.2082H15.2498H16.2915H17.3332H18.3748H19.4165H20.4582H21.4998H22.5415H23.5832H24.6248H25.6665H26.7082H27.7498H28.7915H29.8332V22.3747V21.3315V20.293H28.7915Z" fill="#F6C675"/>
    <path d="M11.0833 19.2495H28.7917V3.62454H27.75V2.58131H26.7083V1.53809H5.875V9.86986H6.91667V15.0766H5.875V22.3699H6.91667V23.4131H9V19.2449H11.0833V19.2495ZM11.0833 10.9178H16.2917V11.961H11.0833V10.9178ZM24.625 8.83599H11.0833V7.79276H24.625V8.83599ZM22.5417 5.71099H13.1667V4.66776H22.5417V5.71099Z" fill="#F6C675"/>
    <path d="M27.7498 23.418H26.7082H25.6665H24.6248H23.5832H22.5415H21.4998H20.4582H19.4165H18.3748H17.3332H16.2915H15.2498H14.2082H13.1665H12.1248H11.0832H10.0415V24.4565H11.0832H12.1248H13.1665H14.2082H15.2498H16.2915H17.3332H18.3748H19.4165H20.4582H21.4998H22.5415H23.5832H24.6248H25.6665H26.7082H27.7498H28.7915H29.8332V23.418H28.7915H27.7498Z" fill="#DB8E50"/>
    <path d="M6.9165 23.418V24.4565H7.95817H8.99984V23.418H7.95817H6.9165Z" fill="#DB8E50"/>
    <path d="M29.833 21.3311V22.3743V23.4175H30.8747V22.3743V21.3311H29.833Z" fill="#DB8E50"/>
    <path d="M10.0412 21.3311H8.99951V22.3743V23.4175H10.0412V22.3743V21.3311Z" fill="#DB8E50"/>
    <path d="M6.91618 22.375H5.87451V23.4182H6.91618V22.375Z" fill="#DB8E50"/>
    <path d="M5.87484 20.293V19.2497V18.2065V17.168V16.1247V15.0815H6.9165V14.043V12.9997V11.9565V10.918V9.87474H5.87484V8.83152V7.79297V6.74974V5.70652V4.66797V3.62474V2.58152V1.54297H4.83317H3.7915V2.58152H4.83317V3.62474V4.66797V5.70652V6.74974V7.79297V8.83152V9.87474V10.918H5.87484V11.9565V12.9997H4.83317V14.043V15.0815V16.1247V17.168V18.2065V19.2497V20.293V21.3315V22.3747H5.87484V21.3315V20.293Z" fill="#DB8E50"/>
    <path d="M19.4162 17.168H18.3745H17.3328H16.2912H15.2495H14.2078H13.1662H12.1245V18.2065H13.1662H14.2078H15.2495H16.2912H17.3328H18.3745H19.4162H20.4578H21.4995V17.168H20.4578H19.4162Z" fill="#DB8E50"/>
    <path d="M22.5415 15.0815H23.5832H24.6248V14.043H23.5832H22.5415H21.4998H20.4582H19.4165H18.3748H17.3332H16.2915V15.0815H17.3332H18.3748H19.4165H20.4582H21.4998H22.5415Z" fill="#DB8E50"/>
    <path d="M13.1663 11.9565H14.208H15.2497H16.2913V10.918H15.2497H14.208H13.1663H12.1247H11.083V11.9565H12.1247H13.1663Z" fill="#DB8E50"/>
    <path d="M13.1663 8.83152H14.208H15.2497H16.2913H17.333H18.3747H19.4163H20.458H21.4997H22.5413H23.583H24.6247V7.79297H23.583H22.5413H21.4997H20.458H19.4163H18.3747H17.333H16.2913H15.2497H14.208H13.1663H12.1247H11.083V8.83152H12.1247H13.1663Z" fill="#DB8E50"/>
    <path d="M15.2498 5.70652H16.2915H17.3332H18.3748H19.4165H20.4582H21.4998H22.5415V4.66797H21.4998H20.4582H19.4165H18.3748H17.3332H16.2915H15.2498H14.2082H13.1665V5.70652H14.2082H15.2498Z" fill="#DB8E50"/>
    <path d="M2.74967 1.54297H1.70801V2.58152V3.62474V4.66797H2.74967H3.79134V3.62474V2.58152H2.74967V1.54297Z" fill="#DB8E50"/>
    <path d="M27.7498 24.4565H26.7082H25.6665H24.6248H23.5832H22.5415H21.4998H20.4582H19.4165H18.3748H17.3332H16.2915H15.2498H14.2082H13.1665H12.1248H11.0832H10.0415V23.418H8.99984V24.4565H7.95817H6.9165V25.4997H7.95817H8.99984H10.0415H11.0832H12.1248H13.1665H14.2082H15.2498H16.2915H17.3332H18.3748H19.4165H20.4582H21.4998H22.5415H23.5832H24.6248H25.6665H26.7082H27.7498H28.7915H29.8332V24.4565H28.7915H27.7498Z" fill="#29282F"/>
    <path d="M30.8747 23.418H29.833V24.4612H30.8747V23.418Z" fill="#29282F"/>
    <path d="M6.91667 23.418H5.875V24.4612H6.91667V23.418Z" fill="#29282F"/>
    <path d="M10.0415 23.4185H11.0832V22.3753V21.332H10.0415V22.3753V23.4185Z" fill="#29282F"/>
    <path d="M30.875 21.332V22.3753V23.4185H31.9167V22.3753V21.332H30.875Z" fill="#29282F"/>
    <path d="M5.87467 22.375H4.83301V23.4182H5.87467V22.375Z" fill="#29282F"/>
    <path d="M30.8747 20.293H29.833V21.3362H30.8747V20.293Z" fill="#29282F"/>
    <path d="M4.83317 20.293V19.2497V18.2065V17.168V16.1247V15.0815V14.043H3.7915V15.0815V16.1247V17.168V18.2065V19.2497V20.293V21.3315V22.3747H4.83317V21.3315V20.293Z" fill="#29282F"/>
    <path d="M5.87467 12.9997V11.9565V10.918H4.83301V11.9565V12.9997V14.043H5.87467V12.9997Z" fill="#29282F"/>
    <path d="M4.83301 8.83203V7.79348V6.75026V5.70703V4.66848V3.62526V2.58203H3.79134V3.62526V4.66848H2.74967H1.70801V5.70703H2.74967H3.79134V6.75026V7.79348V8.83203V9.87526V10.9185H4.83301V9.87526V8.83203Z" fill="#29282F"/>
    <path d="M28.7917 5.70677V6.75V7.79323V8.83177V9.875V10.9182V11.9568V13V14.0432V15.0818V16.125V17.1682V18.2068V19.25H27.75H26.7083H25.6667H24.625H23.5833H22.5417H21.5H20.4583H19.4167H18.375H17.3333H16.2917H15.25H14.2083H13.1667H12.125H11.0833H10.0417H9V20.2932V21.3318H10.0417V20.2932H11.0833H12.125H13.1667H14.2083H15.25H16.2917H17.3333H18.375H19.4167H20.4583H21.5H22.5417H23.5833H24.625H25.6667H26.7083H27.75H28.7917H29.8333V19.25V18.2068V17.1682V16.125V15.0818V14.0432V13V11.9568V10.9182V9.875V8.83177V7.79323V6.75V5.70677V4.66823V3.625H28.7917V4.66823V5.70677Z" fill="#29282F"/>
    <path d="M28.7917 2.58203H27.75V3.62526H28.7917V2.58203Z" fill="#29282F"/>
    <path d="M1.70817 2.58152V1.54297H0.666504V2.58152V3.62474V4.66797H1.70817V3.62474V2.58152Z" fill="#29282F"/>
    <path d="M27.7497 1.54297H26.708V2.58619H27.7497V1.54297Z" fill="#29282F"/>
    <path d="M2.74967 2.58177H3.79134V1.54323H4.83301H5.87467H6.91634H7.95801H8.99967H10.0413H11.083H12.1247H13.1663H14.208H15.2497H16.2913H17.333H18.3747H19.4163H20.458H21.4997H22.5413H23.583H24.6247H25.6663H26.708V0.5H25.6663H24.6247H23.583H22.5413H21.4997H20.458H19.4163H18.3747H17.333H16.2913H15.2497H14.208H13.1663H12.1247H11.083H10.0413H8.99967H7.95801H6.91634H5.87467H4.83301H3.79134H2.74967H1.70801V1.54323H2.74967V2.58177Z" fill="#29282F"/>
  </g>
  <defs>
    <clipPath id="clip0_854_18985">
      <rect width="31.25" height="25" fill="white" transform="translate(0.666504 0.5)"/>
    </clipPath>
  </defs>
</svg>