<svg xmlns="http://www.w3.org/2000/svg" width="32" height="26" viewBox="0 0 32 26" fill="none">
  <g clip-path="url(#clip0_911_21265)">
    <path d="M28.125 20.293H27.0833H26.0417H25H23.9583H22.9167H21.875H20.8333H19.7917H18.75H17.7083H16.6667H15.625H14.5833H13.5417H12.5H11.4583H10.4167H9.375V21.3315H10.4167V22.3747V23.418H11.4583H12.5H13.5417H14.5833H15.625H16.6667H17.7083H18.75H19.7917H20.8333H21.875H22.9167H23.9583H25H26.0417H27.0833H28.125H29.1667V22.3747V21.3315V20.293H28.125Z" fill="#0C0C0C"/>
    <path d="M10.4168 19.2495H28.1252V3.62454H27.0835V2.58131H26.0418V1.53809H5.2085V9.86986H6.25016V15.0766H5.2085V22.3699H6.25016V23.4131H8.3335V19.2449H10.4168V19.2495ZM10.4168 10.9178H15.6252V11.961H10.4168V10.9178ZM23.9585 8.83599H10.4168V7.79276H23.9585V8.83599ZM21.8752 5.71099H12.5002V4.66776H21.8752V5.71099Z" fill="#0C0C0C"/>
    <path d="M27.0833 23.418H26.0417H25H23.9583H22.9167H21.875H20.8333H19.7917H18.75H17.7083H16.6667H15.625H14.5833H13.5417H12.5H11.4583H10.4167H9.375V24.4565H10.4167H11.4583H12.5H13.5417H14.5833H15.625H16.6667H17.7083H18.75H19.7917H20.8333H21.875H22.9167H23.9583H25H26.0417H27.0833H28.125H29.1667V23.418H28.125H27.0833Z" fill="#FAFAFA"/>
    <path d="M6.25 23.418V24.4565H7.29167H8.33333V23.418H7.29167H6.25Z" fill="#FAFAFA"/>
    <path d="M29.1665 21.3311V22.3743V23.4175H30.2082V22.3743V21.3311H29.1665Z" fill="#FAFAFA"/>
    <path d="M9.37467 21.3311H8.33301V22.3743V23.4175H9.37467V22.3743V21.3311Z" fill="#FAFAFA"/>
    <path d="M6.24967 22.375H5.20801V23.4182H6.24967V22.375Z" fill="#FAFAFA"/>
    <path d="M5.20833 20.293V19.2497V18.2065V17.168V16.1247V15.0815H6.25V14.043V12.9997V11.9565V10.918V9.87474H5.20833V8.83152V7.79297V6.74974V5.70652V4.66797V3.62474V2.58152V1.54297H4.16667H3.125V2.58152H4.16667V3.62474V4.66797V5.70652V6.74974V7.79297V8.83152V9.87474V10.918H5.20833V11.9565V12.9997H4.16667V14.043V15.0815V16.1247V17.168V18.2065V19.2497V20.293V21.3315V22.3747H5.20833V21.3315V20.293Z" fill="#FAFAFA"/>
    <path d="M18.7497 17.168H17.708H16.6663H15.6247H14.583H13.5413H12.4997H11.458V18.2065H12.4997H13.5413H14.583H15.6247H16.6663H17.708H18.7497H19.7913H20.833V17.168H19.7913H18.7497Z" fill="#FAFAFA"/>
    <path d="M21.875 15.0815H22.9167H23.9583V14.043H22.9167H21.875H20.8333H19.7917H18.75H17.7083H16.6667H15.625V15.0815H16.6667H17.7083H18.75H19.7917H20.8333H21.875Z" fill="#FAFAFA"/>
    <path d="M12.4998 11.9565H13.5415H14.5832H15.6248V10.918H14.5832H13.5415H12.4998H11.4582H10.4165V11.9565H11.4582H12.4998Z" fill="#FAFAFA"/>
    <path d="M12.4998 8.83152H13.5415H14.5832H15.6248H16.6665H17.7082H18.7498H19.7915H20.8332H21.8748H22.9165H23.9582V7.79297H22.9165H21.8748H20.8332H19.7915H18.7498H17.7082H16.6665H15.6248H14.5832H13.5415H12.4998H11.4582H10.4165V8.83152H11.4582H12.4998Z" fill="#FAFAFA"/>
    <path d="M14.5833 5.70652H15.625H16.6667H17.7083H18.75H19.7917H20.8333H21.875V4.66797H20.8333H19.7917H18.75H17.7083H16.6667H15.625H14.5833H13.5417H12.5V5.70652H13.5417H14.5833Z" fill="#FAFAFA"/>
    <path d="M2.08317 1.54297H1.0415V2.58152V3.62474V4.66797H2.08317H3.12484V3.62474V2.58152H2.08317V1.54297Z" fill="#FAFAFA"/>
    <path d="M27.0833 24.4565H26.0417H25H23.9583H22.9167H21.875H20.8333H19.7917H18.75H17.7083H16.6667H15.625H14.5833H13.5417H12.5H11.4583H10.4167H9.375V23.418H8.33333V24.4565H7.29167H6.25V25.4997H7.29167H8.33333H9.375H10.4167H11.4583H12.5H13.5417H14.5833H15.625H16.6667H17.7083H18.75H19.7917H20.8333H21.875H22.9167H23.9583H25H26.0417H27.0833H28.125H29.1667V24.4565H28.125H27.0833Z" fill="#0C0C0C"/>
    <path d="M30.2082 23.418H29.1665V24.4612H30.2082V23.418Z" fill="#0C0C0C"/>
    <path d="M6.25016 23.418H5.2085V24.4612H6.25016V23.418Z" fill="#0C0C0C"/>
    <path d="M9.375 23.4185H10.4167V22.3753V21.332H9.375V22.3753V23.4185Z" fill="#0C0C0C"/>
    <path d="M30.2085 21.332V22.3753V23.4185H31.2502V22.3753V21.332H30.2085Z" fill="#0C0C0C"/>
    <path d="M5.20817 22.375H4.1665V23.4182H5.20817V22.375Z" fill="#0C0C0C"/>
    <path d="M30.2082 20.293H29.1665V21.3362H30.2082V20.293Z" fill="#0C0C0C"/>
    <path d="M4.16667 20.293V19.2497V18.2065V17.168V16.1247V15.0815V14.043H3.125V15.0815V16.1247V17.168V18.2065V19.2497V20.293V21.3315V22.3747H4.16667V21.3315V20.293Z" fill="#0C0C0C"/>
    <path d="M5.20817 12.9997V11.9565V10.918H4.1665V11.9565V12.9997V14.043H5.20817V12.9997Z" fill="#0C0C0C"/>
    <path d="M4.1665 8.83203V7.79348V6.75026V5.70703V4.66848V3.62526V2.58203H3.12484V3.62526V4.66848H2.08317H1.0415V5.70703H2.08317H3.12484V6.75026V7.79348V8.83203V9.87526V10.9185H4.1665V9.87526V8.83203Z" fill="#0C0C0C"/>
    <path d="M28.1252 5.70677V6.75V7.79323V8.83177V9.875V10.9182V11.9568V13V14.0432V15.0818V16.125V17.1682V18.2068V19.25H27.0835H26.0418H25.0002H23.9585H22.9168H21.8752H20.8335H19.7918H18.7502H17.7085H16.6668H15.6252H14.5835H13.5418H12.5002H11.4585H10.4168H9.37516H8.3335V20.2932V21.3318H9.37516V20.2932H10.4168H11.4585H12.5002H13.5418H14.5835H15.6252H16.6668H17.7085H18.7502H19.7918H20.8335H21.8752H22.9168H23.9585H25.0002H26.0418H27.0835H28.1252H29.1668V19.25V18.2068V17.1682V16.125V15.0818V14.0432V13V11.9568V10.9182V9.875V8.83177V7.79323V6.75V5.70677V4.66823V3.625H28.1252V4.66823V5.70677Z" fill="#0C0C0C"/>
    <path d="M28.1252 2.58203H27.0835V3.62526H28.1252V2.58203Z" fill="#0C0C0C"/>
    <path d="M1.04167 2.58152V1.54297H0V2.58152V3.62474V4.66797H1.04167V3.62474V2.58152Z" fill="#0C0C0C"/>
    <path d="M27.0832 1.54297H26.0415V2.58619H27.0832V1.54297Z" fill="#0C0C0C"/>
    <path d="M2.08317 2.58177H3.12484V1.54323H4.1665H5.20817H6.24984H7.2915H8.33317H9.37484H10.4165H11.4582H12.4998H13.5415H14.5832H15.6248H16.6665H17.7082H18.7498H19.7915H20.8332H21.8748H22.9165H23.9582H24.9998H26.0415V0.5H24.9998H23.9582H22.9165H21.8748H20.8332H19.7915H18.7498H17.7082H16.6665H15.6248H14.5832H13.5415H12.4998H11.4582H10.4165H9.37484H8.33317H7.2915H6.24984H5.20817H4.1665H3.12484H2.08317H1.0415V1.54323H2.08317V2.58177Z" fill="#0C0C0C"/>
  </g>
  <defs>
    <clipPath id="clip0_911_21265">
      <rect width="31.25" height="25" fill="white" transform="translate(0 0.5)"/>
    </clipPath>
  </defs>
</svg>