<svg xmlns="http://www.w3.org/2000/svg" width="22" height="17" viewBox="0 0 22 17" fill="none">
  <mask id="path-1-outside-1_774_29764" maskUnits="userSpaceOnUse" x="0" y="0" width="22" height="17" fill="black">
    <rect fill="white" width="22" height="17"/>
    <path d="M20.3339 4.87082V4.22516H19.6661H19V4.87082H18.3339H17.6661V5.51649H17H16.3339V6.16215H15.6661H15H14.3339V5.51649V4.87082H13.6661V4.22516H13V3.58108V2.93541H12.3339V2.28975V1.64566H11.6661V1H11H10.3339V1.64566H9.66613V2.28975V2.93541H9V3.58108V4.22516H8.33387V4.87082V5.51649H7.66613V6.16215H7H6.33387H5.66613V5.51649H5H4.33387V4.87082H3.66613H3V4.22516H2.33387H1.66613V4.87082H1V5.51649V6.16215V6.80624H1.66613V7.4519V8.09756V8.74165V9.38731H2.33387V10.033V10.6771V11.3227V11.9684H3V12.614V13.2581V13.9038V14.5495V15.1935H3.66613H4.33387V14.5495H5H5.66613V13.9038H6.33387H7H7.66613H8.33387H9V13.2581H9.66613H10.3339H11H11.6661H12.3339H13H13.6661V13.9038H14.3339H15H15.6661H16.3339V14.5495H17H17.6661V15.1935H18.3339H19V14.5495V13.9038V13.2581V12.614V11.9684H19.6661V11.3227V10.6771V10.033V9.38731H20.3339V8.74165V8.09756V7.4519V6.80624H21V6.16215V5.51649V4.87082H20.3339Z"/>
  </mask>
  <path d="M20.3339 4.87082V4.22516H19.6661H19V4.87082H18.3339H17.6661V5.51649H17H16.3339V6.16215H15.6661H15H14.3339V5.51649V4.87082H13.6661V4.22516H13V3.58108V2.93541H12.3339V2.28975V1.64566H11.6661V1H11H10.3339V1.64566H9.66613V2.28975V2.93541H9V3.58108V4.22516H8.33387V4.87082V5.51649H7.66613V6.16215H7H6.33387H5.66613V5.51649H5H4.33387V4.87082H3.66613H3V4.22516H2.33387H1.66613V4.87082H1V5.51649V6.16215V6.80624H1.66613V7.4519V8.09756V8.74165V9.38731H2.33387V10.033V10.6771V11.3227V11.9684H3V12.614V13.2581V13.9038V14.5495V15.1935H3.66613H4.33387V14.5495H5H5.66613V13.9038H6.33387H7H7.66613H8.33387H9V13.2581H9.66613H10.3339H11H11.6661H12.3339H13H13.6661V13.9038H14.3339H15H15.6661H16.3339V14.5495H17H17.6661V15.1935H18.3339H19V14.5495V13.9038V13.2581V12.614V11.9684H19.6661V11.3227V10.6771V10.033V9.38731H20.3339V8.74165V8.09756V7.4519V6.80624H21V6.16215V5.51649V4.87082H20.3339Z" fill="#FFFD9B"/>
  <path d="M20.3339 4.87082V4.22516H19.6661H19V4.87082H18.3339H17.6661V5.51649H17H16.3339V6.16215H15.6661H15H14.3339V5.51649V4.87082H13.6661V4.22516H13V3.58108V2.93541H12.3339V2.28975V1.64566H11.6661V1H11H10.3339V1.64566H9.66613V2.28975V2.93541H9V3.58108V4.22516H8.33387V4.87082V5.51649H7.66613V6.16215H7H6.33387H5.66613V5.51649H5H4.33387V4.87082H3.66613H3V4.22516H2.33387H1.66613V4.87082H1V5.51649V6.16215V6.80624H1.66613V7.4519V8.09756V8.74165V9.38731H2.33387V10.033V10.6771V11.3227V11.9684H3V12.614V13.2581V13.9038V14.5495V15.1935H3.66613H4.33387V14.5495H5H5.66613V13.9038H6.33387H7H7.66613H8.33387H9V13.2581H9.66613H10.3339H11H11.6661H12.3339H13H13.6661V13.9038H14.3339H15H15.6661H16.3339V14.5495H17H17.6661V15.1935H18.3339H19V14.5495V13.9038V13.2581V12.614V11.9684H19.6661V11.3227V10.6771V10.033V9.38731H20.3339V8.74165V8.09756V7.4519V6.80624H21V6.16215V5.51649V4.87082H20.3339Z" stroke="black" stroke-width="2" mask="url(#path-1-outside-1_774_29764)"/>
</svg>