<svg viewBox="0 0 12 22" fill="none" xmlns="http://www.w3.org/2000/svg">
<path d="M1 20H0V21H1V20Z" fill="#000000"/>
<path d="M2 17H1V20H2V17Z" fill="#000000"/>
<path d="M3 14H2V17H3V14Z" fill="#000000"/>
<path d="M4 11H3V14H4V11Z" fill="#000000"/>
<path d="M5 8H4V11H5V8Z" fill="#000000"/>
<path d="M6 5H5V8H6V5Z" fill="#000000"/>
<path d="M7 3H6V5H7V3Z" fill="#000000"/>
<path d="M8 2H7V3H8V2Z" fill="#000000"/>
<path d="M10 1H8V2H10V1Z" fill="#000000"/>
<path d="M12 0H10V1H12V0Z" fill="#000000"/>
<path d="M10 1V2H8V3H7V5H6V8H5V11H4V14H3V17H2V20H1V21H0V22H12V21V2V1H10Z" fill="#F5F5F5"/>
</svg>
