<svg xmlns="http://www.w3.org/2000/svg" width="30" height="30" viewBox="0 0 30 30" fill="none">
  <path d="M28.6368 13.7831V12.0833H27.2735V10.625H25.9103V9.16667H23.1824V7.70833H21.8191V6.25H17.7279V7.70833H16.3647V9.16667H13.6368V7.70833H12.2735V6.25H8.18235V7.70833H6.81912V9.16667H4.09118V10.625H2.72794V12.0833H1.36471V13.7831H0V16.4583H1.36324V17.9167H2.72647V19.375H4.08971V20.8333H5.45294V22.2917H8.18088V23.75H21.8176V22.2917H24.5456V20.8333H25.9088V19.375H27.2721V17.9167H28.6353V16.4583H29.9985V13.7831H28.6353H28.6368ZM23.1824 15V16.4583H6.81765V15H8.18088V13.5417H21.8176V15H23.1809H23.1824ZM23.1824 10.625V12.0833H21.8191V10.625H19.0912V9.16667H21.8191V10.625H23.1824Z" fill="#FF6C6C"/>
</svg>