<svg width="77" height="76" viewBox="0 0 77 76" fill="none" xmlns="http://www.w3.org/2000/svg">
<g clip-path="url(#clip0_33_389)">
<path d="M51.3333 35.8887V33.7815H49.1965V31.6743H47.0597V29.5671H44.923V27.46H29.9486V29.5671H27.8118V33.7898H25.675V42.2352H27.8118V44.3424H42.7862V46.4496H44.923V52.7794H42.7862V54.8866H32.0938V52.7794H29.957V50.6722H25.6834V54.8949H27.8202V57.0021H29.957V59.1093H32.0938V61.2165H47.0681V59.1093H49.2049V57.0021H51.3417V50.6722H53.4785V38.0042H51.3417V35.897L51.3333 35.8887ZM38.5042 37.9958H36.3674V40.103H32.0938V33.7732H34.2306V31.666H42.7862V33.7732H44.923V40.103H40.6494V37.9958H38.5126H38.5042Z" fill="#1E1E1E"/>
<path d="M74.8548 29.5588V27.4433V25.3361H72.718V23.2206V21.1134V18.9979H70.5812V16.8907H68.4445H66.2993H64.1625V14.7752V12.6681V10.5525H62.0257V8.44537H59.8889V6.32986H57.7437V4.22269H55.6069H53.4701V2.10718H51.3333H49.1882V4.22269H47.0514H44.9146V6.32986H42.7778H40.641V4.22269H38.4958H36.359V2.10718H34.2222H32.0854V0H29.9403H27.8035H25.6667V2.10718H23.5299V4.22269H21.3847V6.32986H19.2479V8.44537H17.1111V10.5525V12.6681H14.9743V14.7752H12.8291H10.6924H8.55556V16.8907H6.41876V18.9979H4.27359V21.1134H2.13679V23.2206V25.3361H0V27.4433V29.5588V31.666V33.7732H2.13679V35.8887V37.9958H4.27359V40.1113V42.2185H6.41876V44.334H8.55556V46.4412H10.6924V48.5567V50.6639V52.7794V54.8866V57.0021V59.1093V61.2248V63.3319V65.4475V67.5546V69.6618V71.7773V73.8845V76H12.8291H14.9743V73.8845V71.7773V69.6618V67.5546V65.4475V63.3319V61.2248V59.1093V57.0021V54.8866V52.7794V50.6639V48.5567V46.4412V44.334H12.8291V42.2185H10.6924V40.1113H8.55556V37.9958H6.41876V35.8887V33.7732V31.666H4.27359V29.5588V27.4433H6.41876V25.3361V23.2206H8.55556V21.1134H10.6924V18.9979H12.8291H14.9743H17.1111V16.8907H19.2479V14.7752V12.6681H21.3847V10.5525V8.44537H23.5299V6.32986H25.6667H27.8035V4.22269H29.9403H32.0854V6.32986H34.2222H36.359V8.44537H38.4958V10.5525H40.641V12.6681H42.7778V10.5525H44.9146V8.44537H47.0514H49.1882V6.32986H51.3333H53.4701V8.44537H55.6069V10.5525H57.7437V12.6681H59.8889V14.7752V16.8907H62.0257V18.9979V21.1134H64.1625H66.2993H68.4445V23.2206V25.3361H70.5812V25.3444H68.4445V27.4516H70.5812V29.5588H72.718V31.666V33.7732V35.8887H70.5812V37.9958V40.1113H68.4445V42.2185H66.2993V44.334H64.1625V46.4412H62.0257V48.5567H59.8889V50.6639V52.7794V54.8866V57.0021V59.1093V61.2248V63.3319V65.4475V67.5546V69.6618V71.7773V73.8845V76H62.0257H64.1625V73.8845V71.7773V69.6618V67.5546V65.4475V63.3319V61.2248V59.1093V57.0021V54.8866V52.7794V50.6639H66.2993V48.5567H68.4445V46.4412H70.5812V44.334H72.718V42.2185V40.1113H74.8548V37.9958V35.8887H77V33.7732V31.666V29.5588H74.8548Z" fill="#1E1E1E"/>
<path d="M59.8889 29.5588H57.7438V31.666V33.7731V35.8886H59.8889H62.0257H64.1625V33.7731V31.666H62.0257V29.5588H59.8889Z" fill="#1E1E1E"/>
<path d="M17.1112 27.4433V29.5588H14.9744V31.666V33.7732H17.1112H19.248H21.3847V31.666V29.5588V27.4433H19.248H17.1112Z" fill="#1E1E1E"/>
<path d="M49.1882 14.7752V16.8907H47.0514V18.9979V21.1134H49.1882H51.3334H53.4702V18.9979V16.8907V14.7752H51.3334H49.1882Z" fill="#1E1E1E"/>
<path d="M29.9403 12.668H27.8035V14.7752V16.8907V18.9979H29.9403H32.0854H34.2222V16.8907V14.7752H32.0854V12.668H29.9403Z" fill="#1E1E1E"/>
</g>
<defs>
<clipPath id="clip0_33_389">
<rect width="77" height="76" fill="white"/>
</clipPath>
</defs>
</svg>
