<svg xmlns="http://www.w3.org/2000/svg" width="85" height="79" viewBox="0 0 85 79" fill="none">
  <g clip-path="url(#clip0_33_384)">
    <path d="M81.21 52.33V43.61H78.31V37.8H75.41V40.71H66.71V43.62H60.91V46.53H63.81V66.88H66.71V72.69H63.81V69.78H60.91V52.34H58.01V43.62H55.11V40.71H52.21V26.18H55.11V20.37H60.91V17.46H66.71V14.55H63.81V13.1H60.91V11.65H58.01V2.91H55.11V0H52.21V2.91H49.31V5.82H46.41V8.73H43.51V11.64H23.21V8.73H17.41V5.82H14.51V2.91H11.61V5.82H8.71V17.45H5.81V26.17H2.91V43.61H0V75.59H2.9V78.5H75.41V75.59H78.31V72.68H81.21V66.87H84.11V52.33H81.21ZM11.6 40.7V37.79H14.5V34.88H20.3V37.79H23.2V43.6H20.3V37.79H14.5V43.6H11.6V40.69V40.7ZM43.5 37.79V40.7H40.6V34.89H34.8V40.7H31.9V34.89H34.8V31.98H40.6V34.89H43.5V37.8V37.79ZM26.1 43.6H31.9V46.51H26.1V43.6ZM49.3 11.62V8.71H52.2V5.8H55.1V14.52H46.4V11.61H49.3V11.62ZM11.6 14.53V8.72H14.5V11.63H20.3V14.54H17.4V17.45H14.5V20.36H11.6V14.55V14.53Z" fill="#030303"/>
    <path d="M63.81 20.35V23.26H60.91H58.01V26.16V29.07H55.11V31.98V34.88V37.79H58.01H60.91V34.88V31.98H63.81V34.88V37.79H66.71V34.88V31.98H69.61V34.88V37.79H72.51V34.88V31.98H75.41V34.88H78.31H81.21V31.98V29.07H78.31V26.16V23.26H75.41V20.35H72.51H69.61H66.71H63.81Z" fill="#030303"/>
  </g>
  <defs>
    <clipPath id="clip0_33_384">
      <rect width="84.11" height="78.49" fill="white"/>
    </clipPath>
  </defs>
</svg>