<svg width="85" height="79" viewBox="0 0 85 79" fill="none" xmlns="http://www.w3.org/2000/svg">
<path d="M81.71 52.33V43.61H78.81V37.8H75.91V40.71H67.21V43.62H61.41V46.53H64.31V66.88H67.21V72.69H64.31V69.78H61.41V52.34H58.51V43.62H55.61V40.71H52.71V26.18H55.61V20.37H61.41V17.46H67.21V14.55H64.31V13.1H61.41V11.65H58.51V2.91H55.61V0H52.71V2.91H49.81V5.82H46.91V8.73H44.01V11.64H23.71V8.73H17.91V5.82H15.01V2.91H12.11V5.82H9.21V17.45H6.31V26.17H3.41V43.61H0.5V75.59H3.4V78.5H75.91V75.59H78.81V72.68H81.71V66.87H84.61V52.33H81.71ZM12.1 40.7V37.79H15V34.88H20.8V37.79H23.7V43.6H20.8V37.79H15V43.6H12.1V40.69V40.7ZM44 37.79V40.7H41.1V34.89H35.3V40.7H32.4V34.89H35.3V31.98H41.1V34.89H44V37.8V37.79ZM26.6 43.6H32.4V46.51H26.6V43.6ZM49.8 11.62V8.71H52.7V5.8H55.6V14.52H46.9V11.61H49.8V11.62ZM12.1 14.53V8.72H15V11.63H20.8V14.54H17.9V17.45H15V20.36H12.1V14.55V14.53Z" fill="#030303"/>
</svg>
