<svg width="68" height="13" viewBox="0 0 68 13" fill="none" xmlns="http://www.w3.org/2000/svg">
<g clip-path="url(#clip0_33_414)">
<path d="M1.88401 13V11.2066H0V8.92715H2.30268V10.7421H7.5323V7.61634H1.88401V5.82299H0V1.79335H1.88401V0H7.95097V1.79335H9.85366V11.2066H7.95097V13H1.88401ZM2.30268 5.38006H7.5323V2.2795H2.30268V5.38366V5.38006Z" fill="#030303"/>
<path d="M14.2684 13V11.2066H12.3844V0H14.6871V10.7421H19.9167V8.92715H22.2381V11.2066H20.3354V13H14.2684Z" fill="#030303"/>
<path d="M24.7725 13V10.7421H26.6565V2.2795H24.7725V0H30.8394V2.2795H28.9367V10.7457H30.8394V13.0036H24.7725V13Z" fill="#030303"/>
<path d="M37.1381 13V11.2066H35.2541V7.61995H33.3701V0H35.6728V7.1338H37.5344V10.7421H39.0408V7.1338H40.9024V0H43.2238V7.61995H41.3211V11.2066H39.4371V13H37.1344H37.1381Z" fill="#030303"/>
<path d="M47.6422 13V11.2066H45.7582V1.79335H47.6422V0H53.7091V1.79335H55.6118V4.05125H53.2905V2.2795H48.0609V5.38366H51.8289V7.61995H48.0609V10.7457H53.2905V8.93075H55.6118V11.2102H53.7091V13.0036H47.6422V13Z" fill="#030303"/>
<path d="M60.0266 13V11.2066H58.1426V8.92715H60.4453V10.7421H65.6749V7.61634H60.0266V5.82299H58.1426V1.79335H60.0266V0H66.0935V1.79335H67.9962V4.05125H65.6749V2.2795H60.4453V5.38366H66.0935V7.1374H67.9962V11.2102H66.0935V13.0036H60.0266V13Z" fill="#030303"/>
</g>
<defs>
<clipPath id="clip0_33_414">
<rect width="68" height="13" fill="white"/>
</clipPath>
</defs>
</svg>
