<svg xmlns="http://www.w3.org/2000/svg" width="12" height="13" viewBox="0 0 12 13" fill="none">
  <path d="M2.66667 0.5H9.33333V1.83333H10.6667L10.6667 3.16667H12V9.83333H10.6667L10.6667 11.1667L9.33333 11.1667V12.5H2.66667V11.1667L1.33333 11.1667V9.83333H0V3.16667H1.33333V1.83333H2.66667V0.5Z" fill="#0C0C0C"/>
  <path d="M8 1.5H4V2.5H2V5H2.5L2.5 3L4.5 3V2H7.5V3L9.5 3V5H10.5L10.5 8H9.5V10H7.5V11H4.5V10H2.5L2.5 8H1.5L1.5 5H2L2 4.5H1V8.5H2L2 10.5H4V11.5H8V10.5H10V8.5H11V4.5H10V2.5H8V1.5Z" fill="#BBBBBB"/>
  <path d="M9 3H9.5V5H10.5V8H9.5V10H7.5V11H4.5V10H2.5V9.5H5V8.5H6V7.5H7V6.5H8V5.5H8.5V5H9V3Z" fill="#999999"/>
  <path d="M9 3H8.5V4.5H7V5.5H6V6.5H5V7.5H4V8.5H2.5V9.5H5V8.5H6V7.5H7V6.5H8V5.5H8.5V5H9V3Z" fill="#BBBBBB"/>
  <path d="M8.5 3H8V3.5H6V4.5H5V5.5H4V6.5H3V8H2.5V8.5H4V7.5H5V6.5H6V5.5H7V4.5H8.5V3Z" fill="#BBBBBB"/>
  <path d="M7.5 2H4.5V3H2.5V5H1.5V8H2V8.5H3V6.5H4V5.5H5V4.5H6V3.5H8V2.5H7.5V2Z" fill="#CCCCCC"/>
  <path d="M8 1.5H4V2.5H2V5H2.5L2.5 3L4.5 3V2H7.5V3L9.5 3V5H10.5L10.5 8H9.5V10H7.5V11H4.5V10H2.5L2.5 8H1.5L1.5 5H2L2 4.5H1V8.5H2L2 10.5H4V11.5H8V10.5H10V8.5H11V4.5H10V2.5H8V1.5Z" fill="#BBBBBB"/>
</svg>