<svg xmlns="http://www.w3.org/2000/svg" width="23" height="20" viewBox="0 0 23 20" fill="none">
  <g clip-path="url(#clip0_801_4924)">
    <path d="M17.2504 15.8335H16.4294V16.6668H17.2504V15.8335Z" fill="#F8B806"/>
    <path d="M12.3218 15.8335V15.0002H11.5008V14.1668V13.3335H10.6784V14.1668V15.0002H9.85745V15.8335H9.03646H8.21411V16.6668H9.03646V17.5002H9.85745V18.3335H10.6784V19.1668V20.0002H11.5008V19.1668V18.3335H12.3218V17.5002H13.1428V16.6668H13.9651V15.8335H13.1428H12.3218Z" fill="#F8B806"/>
    <path d="M22.1789 9.1665H21.3579V8.33317H20.5356H19.7146V7.49984H18.8936V6.6665H18.0712V5.83317H17.2502V4.99984V4.1665H16.4292V4.99984V5.83317H15.6069V6.6665H14.7859V7.49984H13.9649V8.33317H13.1426H12.3216V9.1665H11.5006H10.6782V9.99984H11.5006H12.3216V10.8332H13.1426H13.9649V11.6665H14.7859V12.4998H15.6069V13.3332V14.1665H16.4292V14.9998H17.2502V14.1665H18.0712V13.3332V12.4998H18.8936V11.6665H19.7146V10.8332H20.5356H21.3579V9.99984H22.1789H22.9999V9.1665H22.1789Z" fill="#F8B806"/>
    <path d="M8.21399 8.33333H9.03635V7.5H9.85734V6.66667H10.6783H11.5007H12.3217V5.83333H11.5007H10.6783H9.85734V5H9.03635H8.21399V4.16667H7.393V3.33333V2.5H6.57201V1.66667V0.833333V0H5.74966V0.833333V1.66667V2.5H4.92867V3.33333V4.16667H4.10768V5H3.28533H2.46433V5.83333H1.64334H0.820991H0V6.66667H0.820991H1.64334H2.46433V7.5H3.28533V8.33333H4.10768V9.16667H4.92867V10H5.74966V10.8333V11.6667V12.5V13.3333H6.57201V12.5V11.6667V10.8333V10H7.393V9.16667H8.21399V8.33333Z" fill="#F8B806"/>
    <path d="M17.2504 2.5H16.4294V3.33333H17.2504V2.5Z" fill="#F8B806"/>
  </g>
  <defs>
    <clipPath id="clip0_801_4924">
      <rect width="23" height="20" fill="white"/>
    </clipPath>
  </defs>
</svg>