<svg width="40" height="36" viewBox="0 0 40 36" fill="none" xmlns="http://www.w3.org/2000/svg">
<g clip-path="url(#clip0_1026_3201)">
<path d="M34.9967 15.5156V13.0311V10.5467H32.4951V8.06221H30V5.57773V3.09326H27.4984H24.9967H22.4951H20H17.4984H14.9967H12.5016H9.99997V5.57773V8.06221H7.49835V10.5467H4.99674V13.0311V15.5156H2.50159V18.0001V20.4846H4.99674V22.969V25.4535H7.49835V27.938H9.99997V30.4225V32.9069H12.5016H14.9967H17.4984H20H22.4951H24.9967H27.4984H30V30.4225H32.4951V27.938V25.4535H34.9967V22.969V20.4846H37.4984V18.0001V15.5156H34.9967Z" fill="#B8F2AA"/>
<path d="M24.9968 32.9072H22.4951H20H17.4984H14.9968H12.5016H10V35.3917H12.5016H14.9968H17.4984H20H22.4951H24.9968H27.4984H30V32.9072H27.4984H24.9968Z" fill="#0C0C0C"/>
<path d="M32.5016 30.4224H30V32.9068H32.5016V30.4224Z" fill="#0C0C0C"/>
<path d="M10 27.938H7.49841V30.4225V32.9069H10V30.4225V27.938Z" fill="#0C0C0C"/>
<path d="M32.4951 27.9381V30.4226H34.9967V27.9381V25.4536H32.4951V27.9381Z" fill="#0C0C0C"/>
<path d="M7.49844 25.4536H4.99683V27.9381H7.49844V25.4536Z" fill="#0C0C0C"/>
<path d="M34.9968 22.9693V25.4538H37.4984V22.9693V20.4849H34.9968V22.9693Z" fill="#0C0C0C"/>
<path d="M4.99674 20.4849H2.50159V22.9693V25.4538H4.99674V22.9693V20.4849Z" fill="#0C0C0C"/>
<path d="M37.4984 15.5156V18.0001V20.4846H40V18.0001V15.5156H37.4984Z" fill="#0C0C0C"/>
<path d="M2.50162 15.5156H0V18.0001V20.4846H2.50162V18.0001V15.5156Z" fill="#0C0C0C"/>
<path d="M34.9968 15.5158H37.4984V13.0313V10.5469H34.9968V13.0313V15.5158Z" fill="#0C0C0C"/>
<path d="M4.99674 13.0313V10.5469H2.50159V13.0313V15.5158H4.99674V13.0313Z" fill="#0C0C0C"/>
<path d="M34.9967 8.0625H32.4951V10.547H34.9967V8.0625Z" fill="#0C0C0C"/>
<path d="M7.49844 8.0625H4.99683V10.547H7.49844V8.0625Z" fill="#0C0C0C"/>
<path d="M30 8.06221H32.4952V5.57773V3.09326H30V5.57773V8.06221Z" fill="#0C0C0C"/>
<path d="M10 5.57773V3.09326H7.49841V5.57773V8.06221H10V5.57773Z" fill="#0C0C0C"/>
<path d="M14.9968 3.09336H17.4984H20H22.4951H24.9968H27.4984H30V0.608887H27.4984H24.9968H22.4951H20H17.4984H14.9968H12.5016H10V3.09336H12.5016H14.9968Z" fill="#0C0C0C"/>
<g clip-path="url(#clip1_1026_3201)">
<path d="M14.7199 20.4443H12V23.029H14.7199V20.4443Z" fill="#0C0C0C"/>
<path d="M25.2851 20.4443V23.0242H22.8747H20.1548H17.4348H14.72V25.6089H17.4348H20.1548H22.8747H25.5896V23.0242H28V20.4443H25.2851Z" fill="#0C0C0C"/>
<path d="M17.3537 12.1936V9.60889H14.6388V12.1936V14.7734H17.3537V12.1936Z" fill="#0C0C0C"/>
<path d="M22.6464 9.60889V12.1936V14.7734H25.3612V12.1936V9.60889H22.6464Z" fill="#0C0C0C"/>
</g>
</g>
<defs>
<clipPath id="clip0_1026_3201">
<rect width="40" height="34.7826" fill="white" transform="translate(0 0.608887)"/>
</clipPath>
<clipPath id="clip1_1026_3201">
<rect width="16" height="16" fill="white" transform="translate(12 9.60889)"/>
</clipPath>
</defs>
</svg>
